<?xml version="1.0" standalone="no"?>
<!DOCTYPE svg PUBLIC "-//W3C//DTD SVG 20010904//EN"
 "http://www.w3.org/TR/2001/REC-SVG-20010904/DTD/svg10.dtd">
<svg version="1.0" xmlns="http://www.w3.org/2000/svg"
 width="512.000000pt" height="512.000000pt" viewBox="0 0 512.000000 512.000000"
 preserveAspectRatio="xMidYMid meet">

<g transform="translate(0.000000,512.000000) scale(0.100000,-0.100000)"
fill="#000000" stroke="none">
<path d="M2501 4272 c-61 -33 -71 -67 -71 -233 l0 -146 -27 -12 c-127 -58
-223 -205 -223 -340 0 -50 20 -133 39 -170 12 -21 -6 -61 -184 -430 -109 -223
-199 -407 -201 -409 -10 -13 -161 106 -245 194 -30 33 -77 88 -103 124 -52 70
-62 80 -88 80 -18 0 -242 -159 -270 -192 -10 -11 -18 -26 -18 -34 0 -27 152
-214 253 -310 57 -55 145 -128 195 -164 51 -36 92 -68 92 -72 0 -3 -65 -141
-145 -305 -97 -199 -148 -317 -155 -354 -6 -32 -9 -112 -8 -179 3 -121 3 -123
30 -143 22 -17 32 -18 51 -10 32 15 209 165 243 207 16 19 94 169 173 333
l144 299 100 -28 c180 -50 266 -62 472 -62 205 0 295 12 471 60 52 15 96 25
98 23 2 -2 73 -146 158 -319 l155 -315 110 -91 c60 -51 119 -97 131 -103 27
-14 67 0 83 30 15 29 3 295 -16 348 -7 20 -96 207 -197 416 -102 209 -294 605
-428 879 l-242 500 20 60 c28 82 33 126 22 193 -19 116 -100 226 -200 273
l-50 23 0 157 c0 144 -2 159 -21 184 -23 30 -69 56 -96 56 -10 0 -34 -8 -52
-18z m154 -556 c121 -65 139 -236 35 -330 -93 -84 -237 -65 -310 41 -34 50
-40 145 -11 200 55 108 178 147 286 89z m97 -947 c103 -211 188 -387 188 -392
0 -23 -168 -56 -326 -64 -72 -3 -160 -1 -215 6 -97 12 -234 43 -234 53 0 19
381 788 390 785 5 -2 94 -176 197 -388z"/>
</g>
</svg>
